<svg width="25" height="24" viewBox="0 0 25 24" fill="none" xmlns="http://www.w3.org/2000/svg">
<path d="M7.5 13C7.5 13.5523 7.05229 14 6.5 14C5.94772 14 5.5 13.5523 5.5 13C5.5 12.4477 5.94772 12 6.5 12C7.05229 12 7.5 12.4477 7.5 13Z" fill="#EBD5D1" fill-opacity="0.62"/>
<path d="M11.5 13C11.5 13.5523 11.0523 14 10.5 14C9.94772 14 9.5 13.5523 9.5 13C9.5 12.4477 9.94772 12 10.5 12C11.0523 12 11.5 12.4477 11.5 13Z" fill="#EBD5D1" fill-opacity="0.62"/>
<path d="M14.5 14C15.0523 14 15.5 13.5523 15.5 13C15.5 12.4477 15.0523 12 14.5 12C13.9477 12 13.5 12.4477 13.5 13C13.5 13.5523 13.9477 14 14.5 14Z" fill="#EBD5D1" fill-opacity="0.62"/>
<path d="M19.5 13C19.5 13.5523 19.0523 14 18.5 14C17.9477 14 17.5 13.5523 17.5 13C17.5 12.4477 17.9477 12 18.5 12C19.0523 12 19.5 12.4477 19.5 13Z" fill="#EBD5D1" fill-opacity="0.62"/>
<path d="M6.5 18C7.05229 18 7.5 17.5523 7.5 17C7.5 16.4477 7.05229 16 6.5 16C5.94772 16 5.5 16.4477 5.5 17C5.5 17.5523 5.94772 18 6.5 18Z" fill="#EBD5D1" fill-opacity="0.62"/>
<path d="M11.5 17C11.5 17.5523 11.0523 18 10.5 18C9.94772 18 9.5 17.5523 9.5 17C9.5 16.4477 9.94772 16 10.5 16C11.0523 16 11.5 16.4477 11.5 17Z" fill="#EBD5D1" fill-opacity="0.62"/>
<path d="M14.5 18C15.0523 18 15.5 17.5523 15.5 17C15.5 16.4477 15.0523 16 14.5 16C13.9477 16 13.5 16.4477 13.5 17C13.5 17.5523 13.9477 18 14.5 18Z" fill="#EBD5D1" fill-opacity="0.62"/>
<path fill-rule="evenodd" clip-rule="evenodd" d="M8.85719 1H16.1428C17.2266 0.99999 18.1007 0.999982 18.8086 1.05782C19.5375 1.11737 20.1777 1.24318 20.77 1.54497C21.7108 2.02434 22.4757 2.78924 22.955 3.73005C23.2568 4.32234 23.3826 4.96253 23.4422 5.69138C23.5 6.39923 23.5 7.27334 23.5 8.35706V15.6428C23.5 16.7266 23.5 17.6008 23.4422 18.3086C23.3826 19.0375 23.2568 19.6777 22.955 20.27C22.4757 21.2108 21.7108 21.9757 20.77 22.455C20.1777 22.7568 19.5375 22.8826 18.8086 22.9422C18.1008 23 17.2267 23 16.1429 23H8.85717C7.77344 23 6.89923 23 6.19138 22.9422C5.46253 22.8826 4.82234 22.7568 4.23005 22.455C3.28924 21.9757 2.52434 21.2108 2.04497 20.27C1.74318 19.6777 1.61737 19.0375 1.55782 18.3086C1.49998 17.6007 1.49999 16.7266 1.5 15.6428V8.35719C1.49999 7.27341 1.49998 6.39925 1.55782 5.69138C1.61737 4.96253 1.74318 4.32234 2.04497 3.73005C2.52434 2.78924 3.28924 2.02434 4.23005 1.54497C4.82234 1.24318 5.46253 1.11737 6.19138 1.05782C6.89925 0.999983 7.77341 0.99999 8.85719 1ZM6.35424 3.05118C5.74907 3.10062 5.40138 3.19279 5.13803 3.32698C4.57354 3.6146 4.1146 4.07354 3.82698 4.63803C3.69279 4.90138 3.60062 5.24907 3.55118 5.85424C3.52462 6.17923 3.51185 6.55292 3.5057 7H21.4943C21.4882 6.55292 21.4754 6.17923 21.4488 5.85424C21.3994 5.24907 21.3072 4.90138 21.173 4.63803C20.8854 4.07354 20.4265 3.6146 19.862 3.32698C19.5986 3.19279 19.2509 3.10062 18.6458 3.05118C18.0289 3.00078 17.2366 3 16.1 3H8.9C7.76339 3 6.97108 3.00078 6.35424 3.05118ZM21.5 9H3.5V15.6C3.5 16.7366 3.50078 17.5289 3.55118 18.1458C3.60062 18.7509 3.69279 19.0986 3.82698 19.362C4.1146 19.9265 4.57354 20.3854 5.13803 20.673C5.40138 20.8072 5.74907 20.8994 6.35424 20.9488C6.97108 20.9992 7.76339 21 8.9 21H16.1C17.2366 21 18.0289 20.9992 18.6458 20.9488C19.2509 20.8994 19.5986 20.8072 19.862 20.673C20.4265 20.3854 20.8854 19.9265 21.173 19.362C21.3072 19.0986 21.3994 18.7509 21.4488 18.1458C21.4992 17.5289 21.5 16.7366 21.5 15.6V9Z" fill="#EBD5D1" fill-opacity="0.62"/>
</svg>
