<svg width="24" height="24" viewBox="0 0 24 24" fill="none" xmlns="http://www.w3.org/2000/svg">
<path fill-rule="evenodd" clip-rule="evenodd" d="M3 5C3 3.89543 3.89543 3 5 3H19C20.1046 3 21 3.89543 21 5V19C21 20.1046 20.1046 21 19 21H5C3.89543 21 3 20.1046 3 19V5ZM17.5061 6.65214C17.9744 6.94485 18.1168 7.5618 17.8241 8.03013L15.0191 12.5181L12.2141 17.0061C12.0366 17.2901 11.7288 17.4664 11.3941 17.4757C11.0594 17.4851 10.7422 17.3264 10.5491 17.0528L7.18311 12.2843C6.86462 11.8331 6.9722 11.2092 7.4234 10.8907C7.8746 10.5722 8.49856 10.6798 8.81705 11.131L11.3155 14.6704L16.1281 6.97014C16.4208 6.5018 17.0377 6.35943 17.5061 6.65214Z" fill="#E4DAD7"/>
</svg>
