<svg width="24" height="24" viewBox="0 0 24 24" fill="none" xmlns="http://www.w3.org/2000/svg">
<path fill-rule="evenodd" clip-rule="evenodd" d="M6.00006 11C8.76149 11 11.0001 8.76142 11.0001 6C11.0001 3.23858 8.76149 1 6.00006 1C3.23864 1 1.00006 3.23858 1.00006 6C1.00006 8.76142 3.23864 11 6.00006 11ZM8.14679 3.51937C8.57835 3.76598 8.72829 4.31575 8.48168 4.74731L6.48168 8.24731C6.32904 8.51443 6.05053 8.68508 5.74323 8.69976C5.43592 8.71445 5.14241 8.57115 4.96499 8.3198L3.46499 6.1948C3.17835 5.78872 3.27517 5.22716 3.68125 4.94052C4.08732 4.65387 4.64889 4.75069 4.93553 5.15677L5.62025 6.12679L6.91884 3.85426C7.16545 3.4227 7.71522 3.27276 8.14679 3.51937Z" fill="#FF5733"/>
<path d="M13.9454 5C13.3931 5 12.9454 5.44772 12.9454 6C12.9454 6.55228 13.3931 7 13.9454 7H21.9469C22.4992 7 22.9469 6.55228 22.9469 6C22.9469 5.44772 22.4992 5 21.9469 5H13.9454Z" fill="#FF5733"/>
<path d="M12.9454 18C12.9454 17.4477 13.3931 17 13.9454 17H21.9469C22.4992 17 22.9469 17.4477 22.9469 18C22.9469 18.5523 22.4992 19 21.9469 19H13.9454C13.3931 19 12.9454 18.5523 12.9454 18Z" fill="#FF5733"/>
<path fill-rule="evenodd" clip-rule="evenodd" d="M11.0001 18C11.0001 20.7614 8.76149 23 6.00006 23C3.23864 23 1.00006 20.7614 1.00006 18C1.00006 15.2386 3.23864 13 6.00006 13C8.76149 13 11.0001 15.2386 11.0001 18ZM8.48168 16.7473C8.72829 16.3157 8.57835 15.766 8.14679 15.5194C7.71522 15.2728 7.16545 15.4227 6.91884 15.8543L5.62025 18.1268L4.93553 17.1568C4.64889 16.7507 4.08732 16.6539 3.68125 16.9405C3.27517 17.2272 3.17835 17.7887 3.46499 18.1948L4.96499 20.3198C5.14241 20.5711 5.43592 20.7145 5.74323 20.6998C6.05053 20.6851 6.32904 20.5144 6.48168 20.2473L8.48168 16.7473Z" fill="#FF5733"/>
</svg>
