<svg width="18" height="18" viewBox="0 0 18 18" fill="none" xmlns="http://www.w3.org/2000/svg">
<path d="M10.5 9C10.5 9.82843 9.82843 10.5 9 10.5C8.17157 10.5 7.5 9.82843 7.5 9C7.5 8.44479 7.80165 7.96003 8.25 7.70067V4.875C8.25 4.46079 8.58579 4.125 9 4.125C9.41421 4.125 9.75 4.46079 9.75 4.875V7.70067C10.1984 7.96003 10.5 8.44479 10.5 9Z" fill="#EBD5D1"/>
<path fill-rule="evenodd" clip-rule="evenodd" d="M9 0C9.41421 0 9.75 0.335786 9.75 0.75V1.5C9.75 1.51239 9.7497 1.5247 9.74911 1.53694C11.2579 1.68656 12.6351 2.2833 13.7465 3.19279L14.0947 2.84467C14.3876 2.55178 14.8624 2.55178 15.1553 2.84467C15.4482 3.13756 15.4482 3.61244 15.1553 3.90533L14.8072 4.25345C15.8652 5.54635 16.5 7.19905 16.5 9C16.5 13.1421 13.1421 16.5 9 16.5C4.85786 16.5 1.5 13.1421 1.5 9C1.5 5.11068 4.46047 1.91282 8.25089 1.53694C8.2503 1.5247 8.25 1.51239 8.25 1.5V0.75C8.25 0.335786 8.58579 0 9 0ZM9 3C5.68629 3 3 5.68629 3 9C3 12.3137 5.68629 15 9 15C12.3137 15 15 12.3137 15 9C15 5.68629 12.3137 3 9 3Z" fill="#EBD5D1"/>
</svg>
